<?xml version="1.0" encoding="UTF-8"?>
<svg version="1.1" xmlns="http://www.w3.org/2000/svg" width="500" height="500">
<path d="M0 0 C165 0 330 0 500 0 C500 165 500 330 500 500 C335 500 170 500 0 500 C0 335 0 170 0 0 Z " fill="#FEFEFE" transform="translate(0,0)"/>
<path d="M0 0 C2.95697381 0.21528289 3.89801582 0.88603005 5.89453125 3.1171875 C7.94650597 6.06768475 9.99336578 9.01839096 12 12 C12.59167969 12.86238281 13.18335938 13.72476563 13.79296875 14.61328125 C32.47594957 42.78738734 39.82150961 75.08933082 45 108 C46.5778125 107.505 46.5778125 107.505 48.1875 107 C57.13607469 104.79458886 66.63019968 104.9884389 75 109 C75.90298828 109.42345703 75.90298828 109.42345703 76.82421875 109.85546875 C85.57199994 114.98618985 90.50993176 126.67857402 93.2578125 135.9921875 C100.46499545 165.20024471 94.38167033 195.28254372 79.26269531 220.94189453 C56.33042376 258.31990094 15.22708847 280.87937092 -26 292 C-26.8883403 292.23979584 -27.7766806 292.47959167 -28.69194031 292.72665405 C-50.59082665 298.43010074 -72.98992228 298.41853804 -95.45324707 298.20599365 C-99.14195325 298.17458232 -102.83072821 298.16145314 -106.51953125 298.14648438 C-113.67984591 298.1148849 -120.83989596 298.06410688 -128 298 C-127.12326432 291.98525841 -124.89951242 287.71548498 -121.984375 282.4140625 C-116.01435765 270.03693449 -113.76841298 256.47997864 -111.54733276 243.0456543 C-110.71957972 238.05923288 -109.84832365 233.08044972 -108.9765625 228.1015625 C-108.80666306 227.12958923 -108.63676361 226.15761597 -108.4617157 225.15618896 C-102.20481513 189.65082283 -91.57849613 156.3432941 -70 127 C-69.52675293 126.3493457 -69.05350586 125.69869141 -68.56591797 125.02832031 C-55.88939244 107.74971247 -38.65697226 93.01281947 -17 89 C-3.05952269 87.05133113 11.05738685 93.44870466 23 100 C22.65760182 91.21112231 21.02389031 83.49712282 18.1875 75.1875 C17.79369141 74.02404053 17.39988281 72.86058105 16.99414062 71.66186523 C9.65686133 50.80817209 -1.57475606 28.9426403 -18.8203125 14.47265625 C-20 13 -20 13 -19.9375 10.9375 C-18.69894874 8.3778274 -17.62537552 8.02097937 -15 7 C-14.195625 6.67386719 -13.39125 6.34773437 -12.5625 6.01171875 C-11.716875 5.67785156 -10.87125 5.34398437 -10 5 C-8.32961509 4.27939188 -6.66272871 3.55060233 -5 2.8125 C-4.2575 2.48894531 -3.515 2.16539062 -2.75 1.83203125 C-1.01549531 1.12715582 -1.01549531 1.12715582 0 0 Z " fill="#86C65B" transform="translate(402,173)"/>
<path d="M0 0 C1.32 0 2.64 0 4 0 C5.90234375 2.38671875 5.90234375 2.38671875 7.9375 5.6875 C14.89522024 16.3975989 24.17986778 24.79010166 34.12890625 32.703125 C44.49569033 40.99655227 54.34044885 49.90023416 64 59 C64.75023438 59.68449219 65.50046875 60.36898437 66.2734375 61.07421875 C85.17896502 78.89622789 94.87225382 106.01587599 96.12573242 131.5625 C96.74486885 153.62485063 94.3275321 172.96647498 78.6875 189.75 C75.25521328 193.04997635 71.38682277 195.34517251 67.234375 197.640625 C65.1417638 198.9137521 63.63663214 200.19332816 62 202 C86.1782717 219.69280588 116.12871882 234.99237078 146.5625 236.5625 C152.89659091 236.89659091 152.89659091 236.89659091 154 238 C154.33741013 244.29170653 154.47117152 250.84782817 153 257 C143.83587243 263.10941838 125.26953524 258.01879752 115 256 C90.0906942 250.53743294 68.27566333 239.64001141 49 223 C45.87564964 224.16032092 43.34591719 225.38277328 40.6875 227.375 C28.69090962 234.98865529 12.68458689 235.53696998 -0.8125 232.8125 C-11.32714268 230.05017862 -18.32156947 224.55398271 -26 217 C-26.70253906 216.31035156 -27.40507812 215.62070312 -28.12890625 214.91015625 C-47.42454875 194.63273938 -55.53947216 163.84393589 -55.21484375 136.6171875 C-54.14926843 97.95202606 -35.68886867 61.86794899 -17 29 C-16.4834082 28.08605469 -15.96681641 27.17210937 -15.43457031 26.23046875 C-9.05665209 14.94853718 -9.05665209 14.94853718 -6.34472656 10.30664062 C-5.43883781 8.75274866 -4.55041666 7.18855691 -3.67871094 5.61523438 C-3.2562207 4.88111328 -2.83373047 4.14699219 -2.3984375 3.390625 C-1.84808838 2.40884277 -1.84808838 2.40884277 -1.28662109 1.40722656 C-0.64974365 0.71064941 -0.64974365 0.71064941 0 0 Z " fill="#86C65B" transform="translate(55,214)"/>
<path d="M0 0 C0.65274902 0.36963867 1.30549805 0.73927734 1.97802734 1.12011719 C16.85902543 9.69093345 29.70432409 20.62720063 42.17578125 32.35546875 C45.07604297 35.07120483 48.0389513 37.69370313 51.04296875 40.29296875 C53.3855915 42.33633431 55.69273422 44.41680859 58 46.5 C62.29594745 50.37699282 66.63151246 54.20502898 71 58 C71.02734375 60.16015625 71.02734375 60.16015625 70 63 C67.40595213 65.16264555 64.48384253 66.75671201 61.5625 68.4375 C54.70756706 72.56971846 48.21475686 76.90628678 41.9375 81.875 C40.82942993 82.75067627 40.82942993 82.75067627 39.69897461 83.64404297 C37.46070077 85.42286497 35.22932753 87.20998257 33 89 C-0.41678677 115.79682769 -32.00989604 133.89630741 -76 131 C-92.82925967 128.77390745 -110.93290646 119.86216521 -121.75 106.6875 C-129.49837738 96.07598086 -134.90031761 83.2796847 -134 70 C-145.59687513 78.13255438 -156.76759867 87.0005857 -167.2890625 96.48828125 C-168.46019801 97.52305167 -169.66607671 98.51943019 -170.8984375 99.48046875 C-177.18032484 104.50846158 -181.35898829 110.78381421 -185.86328125 117.35986328 C-188.14221745 120.64807063 -190.57971351 123.81541251 -193 127 C-196.86372194 126.44220916 -199.32330495 125.37329474 -202.5 123.125 C-205.61030601 120.96492104 -208.7225693 118.90302428 -212 117 C-211.68638574 110.97676148 -209.01364704 108.06527733 -205.125 103.8125 C-204.54145752 103.15830078 -203.95791504 102.50410156 -203.35668945 101.83007812 C-196.37078258 94.06732702 -189.08449129 86.62354904 -181.125 79.8515625 C-178.53601055 77.59571507 -176.06086457 75.23079486 -173.5625 72.875 C-168.62414728 68.27922934 -163.42111514 64.09529531 -158.0625 60 C-157.34070557 59.44812012 -156.61891113 58.89624023 -155.87524414 58.32763672 C-152.96248206 56.12903042 -150.25791889 54.13198193 -147 52.46484375 C-146.34 51.98144531 -145.68 51.49804688 -145 51 C-144.54386943 48.43415381 -144.54386943 48.43415381 -144.9375 45.5625 C-145.37462053 34.2383463 -140.95828774 25.66206601 -134 17 C-133.41476563 16.25105469 -132.82953125 15.50210938 -132.2265625 14.73046875 C-119.96275056 -0.04302623 -101.58951428 -10.64721593 -83 -15 C-81.61361328 -15.33451172 -81.61361328 -15.33451172 -80.19921875 -15.67578125 C-52.44370159 -21.31901918 -24.17734228 -13.71546001 0 0 Z " fill="#86C55B" transform="translate(301,45)"/>
<path d="M0 0 C2.95697381 0.21528289 3.89801582 0.88603005 5.89453125 3.1171875 C7.94650597 6.06768475 9.99336578 9.01839096 12 12 C12.59167969 12.86238281 13.18335938 13.72476563 13.79296875 14.61328125 C32.47594957 42.78738734 39.82150961 75.08933082 45 108 C46.5778125 107.505 46.5778125 107.505 48.1875 107 C57.13607469 104.79458886 66.63019968 104.9884389 75 109 C75.90298828 109.42345703 75.90298828 109.42345703 76.82421875 109.85546875 C85.57199994 114.98618985 90.50993176 126.67857402 93.2578125 135.9921875 C100.46499545 165.20024471 94.38167033 195.28254372 79.26269531 220.94189453 C56.33042376 258.31990094 15.22708847 280.87937092 -26 292 C-26.8883403 292.23979584 -27.7766806 292.47959167 -28.69194031 292.72665405 C-50.59082665 298.43010074 -72.98992228 298.41853804 -95.45324707 298.20599365 C-99.14195325 298.17458232 -102.83072821 298.16145314 -106.51953125 298.14648438 C-113.67984591 298.1148849 -120.83989596 298.06410688 -128 298 C-127.12326432 291.98525841 -124.89951242 287.71548498 -121.984375 282.4140625 C-116.01435765 270.03693449 -113.76841298 256.47997864 -111.54733276 243.0456543 C-110.71957972 238.05923288 -109.84832365 233.08044972 -108.9765625 228.1015625 C-108.80666306 227.12958923 -108.63676361 226.15761597 -108.4617157 225.15618896 C-102.20481513 189.65082283 -91.57849613 156.3432941 -70 127 C-69.52675293 126.3493457 -69.05350586 125.69869141 -68.56591797 125.02832031 C-55.88939244 107.74971247 -38.65697226 93.01281947 -17 89 C-3.05952269 87.05133113 11.05738685 93.44870466 23 100 C22.65760182 91.21112231 21.02389031 83.49712282 18.1875 75.1875 C17.79369141 74.02404053 17.39988281 72.86058105 16.99414062 71.66186523 C9.65686133 50.80817209 -1.57475606 28.9426403 -18.8203125 14.47265625 C-20 13 -20 13 -19.9375 10.9375 C-18.69894874 8.3778274 -17.62537552 8.02097937 -15 7 C-14.195625 6.67386719 -13.39125 6.34773437 -12.5625 6.01171875 C-11.716875 5.67785156 -10.87125 5.34398437 -10 5 C-8.32961509 4.27939188 -6.66272871 3.55060233 -5 2.8125 C-4.2575 2.48894531 -3.515 2.16539062 -2.75 1.83203125 C-1.01549531 1.12715582 -1.01549531 1.12715582 0 0 Z M-57.5625 117.6875 C-68.63236868 131.05588556 -77.63764025 145.78345618 -85.1875 161.375 C-85.579375 162.17558838 -85.97125 162.97617676 -86.375 163.80102539 C-93.04428839 177.91889403 -97.17743256 192.60837327 -100.5 207.8125 C-100.69076111 208.66540619 -100.88152222 209.51831238 -101.07806396 210.39706421 C-103.88968431 222.97540404 -106.15824909 235.57772861 -108.125 248.3125 C-110.45103578 263.36679556 -114.14392018 276.79905358 -121.24365234 290.32714844 C-122.13732621 291.99774941 -122.13732621 291.99774941 -122 294 C-87.90526408 294.51545469 -87.90526408 294.51545469 -53.875 292.75 C-52.57127441 292.64067139 -51.26754883 292.53134277 -49.92431641 292.41870117 C-40.98415987 291.53098058 -32.60237355 289.55781511 -24 287 C-22.97986816 286.69900391 -21.95973633 286.39800781 -20.90869141 286.08789062 C5.53664362 278.05001252 31.05443656 266.53502011 51 247 C52.36717793 245.82417662 53.74169082 244.65680241 55.125 243.5 C74.49163522 226.49514957 88.59205759 201.08435939 90.859375 175.24853516 C92.1295107 154.93959459 92.18999577 134.65236966 79 118 C74.44300756 113.03436421 68.99965054 110.43191492 62.359375 109.71484375 C56.11333949 109.51420294 50.71566751 110.43459575 45 113 C43.64398906 114.12420348 43.64398906 114.12420348 43.94995117 117.05322266 C43.9770401 118.42358563 44.00838925 119.79386808 44.04296875 121.1640625 C44.06903767 122.68316198 44.09355105 124.20228876 44.11669922 125.72143555 C44.12924744 126.52205414 44.14179565 127.32267273 44.15472412 128.14755249 C44.63157479 164.19151348 37.14346582 194.88428589 11.76123047 221.69287109 C-4.7727561 238.62918609 -25.514302 249.43175313 -47.3125 258.1875 C-48.26068604 258.57437988 -49.20887207 258.96125977 -50.18579102 259.35986328 C-55.72059864 261.49724689 -60.06455014 262.51641767 -66 262 C-66.66 261.67 -67.32 261.34 -68 261 C-67.81640625 259.17578125 -67.81640625 259.17578125 -67 257 C-64.83984375 255.54296875 -64.83984375 255.54296875 -61.9375 254.1875 C-60.84566406 253.66929687 -59.75382812 253.15109375 -58.62890625 252.6171875 C-56.18572814 251.52840845 -53.74695584 250.46859341 -51.27734375 249.4453125 C-21.71393721 237.13502171 5.86791223 215.85259487 19 186 C25.90626872 168.87432014 27.27559388 150.37230988 27.56982422 132.09790039 C27.60665475 130.32204958 27.66139476 128.54648132 27.73388672 126.77172852 C28.44479203 116.51939951 28.44479203 116.51939951 25.18286133 107.12304688 C22.89465843 105.01777455 20.72141634 103.49205816 18 102 C16.86433594 101.33226562 15.72867188 100.66453125 14.55859375 99.9765625 C11.38795652 98.60354563 8.21945561 97.25476219 5 96 C4.32453125 95.731875 3.6490625 95.46375 2.953125 95.1875 C-19.5952651 88.00394209 -42.72605749 101.50542666 -57.5625 117.6875 Z " fill="#11150E" transform="translate(402,173)"/>
<path d="M0 0 C1.32 0 2.64 0 4 0 C5.90234375 2.38671875 5.90234375 2.38671875 7.9375 5.6875 C14.89522024 16.3975989 24.17986778 24.79010166 34.12890625 32.703125 C44.49569033 40.99655227 54.34044885 49.90023416 64 59 C64.75023438 59.68449219 65.50046875 60.36898437 66.2734375 61.07421875 C85.17896502 78.89622789 94.87225382 106.01587599 96.12573242 131.5625 C96.74486885 153.62485063 94.3275321 172.96647498 78.6875 189.75 C75.25521328 193.04997635 71.38682277 195.34517251 67.234375 197.640625 C65.1417638 198.9137521 63.63663214 200.19332816 62 202 C86.1782717 219.69280588 116.12871882 234.99237078 146.5625 236.5625 C152.89659091 236.89659091 152.89659091 236.89659091 154 238 C154.33741013 244.29170653 154.47117152 250.84782817 153 257 C143.83587243 263.10941838 125.26953524 258.01879752 115 256 C90.0906942 250.53743294 68.27566333 239.64001141 49 223 C45.87564964 224.16032092 43.34591719 225.38277328 40.6875 227.375 C28.69090962 234.98865529 12.68458689 235.53696998 -0.8125 232.8125 C-11.32714268 230.05017862 -18.32156947 224.55398271 -26 217 C-26.70253906 216.31035156 -27.40507812 215.62070312 -28.12890625 214.91015625 C-47.42454875 194.63273938 -55.53947216 163.84393589 -55.21484375 136.6171875 C-54.14926843 97.95202606 -35.68886867 61.86794899 -17 29 C-16.4834082 28.08605469 -15.96681641 27.17210937 -15.43457031 26.23046875 C-9.05665209 14.94853718 -9.05665209 14.94853718 -6.34472656 10.30664062 C-5.43883781 8.75274866 -4.55041666 7.18855691 -3.67871094 5.61523438 C-3.2562207 4.88111328 -2.83373047 4.14699219 -2.3984375 3.390625 C-1.84808838 2.40884277 -1.84808838 2.40884277 -1.28662109 1.40722656 C-0.64974365 0.71064941 -0.64974365 0.71064941 0 0 Z M1 7 C0.72961914 7.49588623 0.45923828 7.99177246 0.18066406 8.50268555 C-4.68612597 17.41731498 -9.57963424 26.31070389 -14.66015625 35.10571289 C-19.76485687 43.94347062 -24.63765191 52.82539948 -29.05126953 62.02880859 C-30.05073181 64.10540623 -31.06993362 66.17165837 -32.08984375 68.23828125 C-47.69716338 100.18287618 -56.72806647 139.70350784 -45.30078125 174.4375 C-38.3142828 194.17519678 -27.15864782 215.29537075 -7.75 225.375 C-1.02875482 228.56898015 5.672899 228.28842845 13 228.375 C14.16917969 228.41238281 15.33835937 228.44976562 16.54296875 228.48828125 C27.38867265 228.59661791 36.32744042 225.50441968 45 219 C44.63358398 218.5138623 44.26716797 218.02772461 43.88964844 217.52685547 C29.29239879 198.11819583 17.26638031 178.9501415 9 156 C8.71108887 155.2044873 8.42217773 154.40897461 8.12451172 153.58935547 C2.03875921 136.53171026 -0.53467661 119.08989773 -1 101 C-1.02723145 99.97406738 -1.05446289 98.94813477 -1.08251953 97.89111328 C-1.16165787 94.40653777 -1.21064195 90.92274016 -1.25 87.4375 C-1.27151123 86.31843262 -1.29302246 85.19936523 -1.31518555 84.04638672 C-1.33976329 77.89638597 -0.96152312 73.43205688 2 68 C4.4375 68.375 4.4375 68.375 7 69 C8.71498659 72.42997318 8.47255761 76.37708024 8.7265625 80.16015625 C10.85252643 111.15354543 10.85252643 111.15354543 19 141 C19.31485352 141.82338867 19.62970703 142.64677734 19.95410156 143.49511719 C22.04586291 148.8000623 24.41925519 153.91715473 27 159 C27.33725098 159.67820801 27.67450195 160.35641602 28.02197266 161.05517578 C33.61576734 172.16046442 40.74550293 181.72312116 49 191 C49.51256348 191.60295898 50.02512695 192.20591797 50.55322266 192.82714844 C52.21890826 194.75099221 52.21890826 194.75099221 55 197 C57.62230136 197.15471367 57.62230136 197.15471367 60 196 C60.75539063 195.73445312 61.51078125 195.46890625 62.2890625 195.1953125 C72.99617434 190.28937831 80.28764372 182.33453777 85.5625 172 C85.88492676 171.37246826 86.20735352 170.74493652 86.53955078 170.09838867 C96.27491705 149.47069193 92.03325874 120.38087471 84.98046875 99.49584961 C76.55745228 76.48175881 60.76131032 60.62940319 42.01953125 45.48046875 C36.49287279 40.94045824 31.1127192 36.23050966 25.73339844 31.51757812 C24.19307158 30.16903281 22.64767459 28.8262836 21.1015625 27.484375 C14.93971776 22.06195163 8.54345598 16.4028529 4.40234375 9.234375 C3.93957031 8.49703125 3.47679687 7.7596875 3 7 C2.34 7 1.68 7 1 7 Z " fill="#10130D" transform="translate(55,214)"/>
<path d="M0 0 C0.65274902 0.36963867 1.30549805 0.73927734 1.97802734 1.12011719 C16.85902543 9.69093345 29.70432409 20.62720063 42.17578125 32.35546875 C45.07604297 35.07120483 48.0389513 37.69370313 51.04296875 40.29296875 C53.3855915 42.33633431 55.69273422 44.41680859 58 46.5 C62.29594745 50.37699282 66.63151246 54.20502898 71 58 C71.02734375 60.16015625 71.02734375 60.16015625 70 63 C67.40595213 65.16264555 64.48384253 66.75671201 61.5625 68.4375 C54.70756706 72.56971846 48.21475686 76.90628678 41.9375 81.875 C40.82942993 82.75067627 40.82942993 82.75067627 39.69897461 83.64404297 C37.46070077 85.42286497 35.22932753 87.20998257 33 89 C-0.41678677 115.79682769 -32.00989604 133.89630741 -76 131 C-92.82925967 128.77390745 -110.93290646 119.86216521 -121.75 106.6875 C-129.49837738 96.07598086 -134.90031761 83.2796847 -134 70 C-145.59687513 78.13255438 -156.76759867 87.0005857 -167.2890625 96.48828125 C-168.46019801 97.52305167 -169.66607671 98.51943019 -170.8984375 99.48046875 C-177.18032484 104.50846158 -181.35898829 110.78381421 -185.86328125 117.35986328 C-188.14221745 120.64807063 -190.57971351 123.81541251 -193 127 C-196.86372194 126.44220916 -199.32330495 125.37329474 -202.5 123.125 C-205.61030601 120.96492104 -208.7225693 118.90302428 -212 117 C-211.68638574 110.97676148 -209.01364704 108.06527733 -205.125 103.8125 C-204.54145752 103.15830078 -203.95791504 102.50410156 -203.35668945 101.83007812 C-196.37078258 94.06732702 -189.08449129 86.62354904 -181.125 79.8515625 C-178.53601055 77.59571507 -176.06086457 75.23079486 -173.5625 72.875 C-168.62414728 68.27922934 -163.42111514 64.09529531 -158.0625 60 C-157.34070557 59.44812012 -156.61891113 58.89624023 -155.87524414 58.32763672 C-152.96248206 56.12903042 -150.25791889 54.13198193 -147 52.46484375 C-146.34 51.98144531 -145.68 51.49804688 -145 51 C-144.54386943 48.43415381 -144.54386943 48.43415381 -144.9375 45.5625 C-145.37462053 34.2383463 -140.95828774 25.66206601 -134 17 C-133.41476563 16.25105469 -132.82953125 15.50210938 -132.2265625 14.73046875 C-119.96275056 -0.04302623 -101.58951428 -10.64721593 -83 -15 C-81.61361328 -15.33451172 -81.61361328 -15.33451172 -80.19921875 -15.67578125 C-52.44370159 -21.31901918 -24.17734228 -13.71546001 0 0 Z M-128 17 C-135.92580835 26.61596457 -140.2114235 34.52601366 -140 47 C-135.10999724 46.34284548 -131.04717592 44.31102049 -126.625 42.25 C-91.17480522 26.17245642 -54.94471471 22.87662133 -17.5625 33.5625 C-16.87075684 33.75996826 -16.17901367 33.95743652 -15.46630859 34.16088867 C-11.63453872 35.31880967 -8.18693471 36.54289767 -5 39 C-4.6875 42.6875 -4.6875 42.6875 -5 46 C-11.31367901 47.37975281 -16.53742068 46.41680229 -22.8125 45.125 C-60.13161082 37.65602682 -95.11400387 43.70078611 -127.453125 63.94140625 C-128.97361245 64.9122126 -128.97361245 64.9122126 -130 66 C-131.31306489 78.47411645 -125.55863407 93.31712819 -118.29296875 103.359375 C-107.82335944 116.0679028 -89.11420853 124.82892833 -72.75 126.625 C-40.31473144 129.5936517 -10.22512868 116.69622946 15 97 C15.55139648 96.57251465 16.10279297 96.1450293 16.67089844 95.70458984 C19.56259483 93.4579898 22.43944222 91.19326987 25.30859375 88.91796875 C35.60225895 80.76476323 45.99058649 72.81356266 56.91162109 65.51367188 C59.87246262 63.52501277 62.53670069 61.57615043 65 59 C57.69022574 52.30185616 57.69022574 52.30185616 50.25 45.75 C47.65985029 43.5087276 45.14613185 41.20316295 42.6640625 38.84375 C34.45839732 31.04912327 26.0966998 23.73869043 17 17 C15.96617187 16.23171875 14.93234375 15.4634375 13.8671875 14.671875 C-29.93237078 -16.7232971 -87.96975008 -25.11576222 -128 17 Z " fill="#0F110C" transform="translate(301,45)"/>
<path d="M0 0 C19.40213155 13.40428292 28.54518518 50.66843481 33.1875 71.9375 C33.43773926 73.08009277 33.68797852 74.22268555 33.94580078 75.39990234 C37.14143092 90.62181874 38.33117473 105.24457986 38.26074219 120.75463867 C38.24999979 123.5625561 38.26071547 126.36983591 38.2734375 129.17773438 C38.28708844 143.52313855 37.54756235 157.16436169 32.6875 170.8125 C32.37482178 171.71339355 32.06214355 172.61428711 31.73999023 173.54248047 C27.93396884 184.30096455 23.05129125 193.00269651 16 202 C15.37665771 202.79591553 15.37665771 202.79591553 14.74072266 203.60791016 C8.53902991 211.44465743 2.03819334 217.98283813 -6 224 C-6.86109375 224.67546875 -7.7221875 225.3509375 -8.609375 226.046875 C-19.47252607 234.33886605 -31.56336879 239.93569813 -44 245.4375 C-44.97936523 245.87497559 -45.95873047 246.31245117 -46.96777344 246.76318359 C-52.03114039 248.95765691 -56.48387247 250.57862915 -62 251 C-60.44949107 247.89898214 -57.40891312 247.46357868 -54.3125 246.3125 C-23.73776576 234.42171785 3.97974518 213.64799796 18.8125 183.75 C34.91448447 144.94592435 32.5493024 96.10514068 17.1875 57.5 C9.56798869 39.1170577 -0.11032252 21.08943142 -14.76171875 7.34765625 C-16 6 -16 6 -16 4 C-14.274773 3.32320342 -12.54461061 2.65898 -10.8125 2 C-9.36810547 1.443125 -9.36810547 1.443125 -7.89453125 0.875 C-5.00315366 0.00095333 -2.98929369 -0.39490669 0 0 Z " fill="#17771A" transform="translate(404,180)"/>
<path d="M0 0 C0.33 0 0.66 0 1 0 C1.14248169 1.51630005 1.14248169 1.51630005 1.2878418 3.06323242 C3.6238664 27.59469936 6.24640553 51.13185185 16 74 C16.28713867 74.68513672 16.57427734 75.37027344 16.87011719 76.07617188 C23.4962875 91.67811668 32.84510005 105.27307747 44 118 C44.78503906 118.91072266 44.78503906 118.91072266 45.5859375 119.83984375 C69.44711049 145.57841868 111.42905077 163.19359004 146 165 C146.02686553 166.97909398 146.04633375 168.95828971 146.0625 170.9375 C146.07410156 172.03964844 146.08570313 173.14179688 146.09765625 174.27734375 C146 177 146 177 145 178 C108.22828511 178.73966093 70.86019495 163.0907047 44.5 137.875 C11.40842632 103.94566496 -0.57515148 54.67226637 -0.15307617 8.68701172 C-0.11300753 5.79097387 -0.06342173 2.89560834 0 0 Z " fill="#17781A" transform="translate(58,291)"/>
<path d="M0 0 C0 0.66 0 1.32 0 2 C-6.38542929 1.32988431 -12.7179301 0.48056857 -19.0625 -0.5 C-46.91134878 -4.78443827 -73.8585336 -3.666501 -99.75 8.5625 C-101.45615479 9.36312866 -101.45615479 9.36312866 -103.19677734 10.17993164 C-118.05285686 17.27230043 -130.49561818 25.86530087 -143.07714844 36.41259766 C-145.50693439 38.41849764 -147.99184668 40.34530387 -150.48852539 42.2668457 C-164.53536909 53.09741971 -176.03391756 64.53718241 -185 80 C-188.29680965 79.34215037 -190.84117922 78.10579427 -193.75 76.4375 C-194.54921875 75.98246094 -195.3484375 75.52742188 -196.171875 75.05859375 C-197.07679688 74.53458984 -197.07679688 74.53458984 -198 74 C-190.79829201 61.29636603 -178.03637031 50.06360915 -166.921875 40.6484375 C-165.55283043 39.47417569 -164.2116349 38.26711245 -162.890625 37.0390625 C-141.91991129 17.54615077 -118.55025665 3.54253256 -91.04589844 -4.40673828 C-89.31933519 -4.90740042 -87.60011877 -5.43329657 -85.8828125 -5.96484375 C-59.05497922 -13.96542904 -25.36884827 -12.68442414 0 0 Z " fill="#17771A" transform="translate(292,86)"/>
</svg>
